<mxfile host="app.diagrams.net" modified="2021-06-07T06:27:03.229Z" agent="5.0 (Windows NT 10.0; Win64; x64) AppleWebKit/537.36 (KHTML, like Gecko) Chrome/91.0.4472.77 Safari/537.36" etag="HAe8VrWYRNB6Lpz-jj_O" version="14.7.6" type="github">
  <diagram id="U2HWP4SiNeCh8Bgvp2hR" name="Page-1">
    <mxGraphModel dx="1422" dy="826" grid="1" gridSize="10" guides="1" tooltips="1" connect="1" arrows="1" fold="1" page="1" pageScale="1" pageWidth="1100" pageHeight="850" background="none" math="0" shadow="0">
      <root>
        <mxCell id="0" />
        <mxCell id="1" parent="0" />
        <mxCell id="-ciGOAF_GKhByW4b5rCs-1" value="" style="shape=umlLifeline;participant=umlEntity;perimeter=lifelinePerimeter;whiteSpace=wrap;html=1;container=1;collapsible=0;recursiveResize=0;verticalAlign=top;spacingTop=36;outlineConnect=0;" parent="1" vertex="1">
          <mxGeometry x="360" y="30" width="40" height="300" as="geometry" />
        </mxCell>
        <mxCell id="-ciGOAF_GKhByW4b5rCs-2" value="投放端" style="shape=umlLifeline;perimeter=lifelinePerimeter;whiteSpace=wrap;html=1;container=1;collapsible=0;recursiveResize=0;outlineConnect=0;" parent="1" vertex="1">
          <mxGeometry x="330" y="70" width="100" height="470" as="geometry" />
        </mxCell>
        <mxCell id="-ciGOAF_GKhByW4b5rCs-24" value="" style="html=1;points=[];perimeter=orthogonalPerimeter;" parent="-ciGOAF_GKhByW4b5rCs-2" vertex="1">
          <mxGeometry x="45" y="150" width="10" height="80" as="geometry" />
        </mxCell>
        <mxCell id="-ciGOAF_GKhByW4b5rCs-30" value="" style="html=1;points=[];perimeter=orthogonalPerimeter;" parent="-ciGOAF_GKhByW4b5rCs-2" vertex="1">
          <mxGeometry x="45" y="270" width="10" height="80" as="geometry" />
        </mxCell>
        <mxCell id="-ciGOAF_GKhByW4b5rCs-10" value="" style="shape=umlLifeline;participant=umlEntity;perimeter=lifelinePerimeter;whiteSpace=wrap;html=1;container=1;collapsible=0;recursiveResize=0;verticalAlign=top;spacingTop=36;outlineConnect=0;" parent="1" vertex="1">
          <mxGeometry x="560" y="30" width="40" height="300" as="geometry" />
        </mxCell>
        <mxCell id="-ciGOAF_GKhByW4b5rCs-11" value="后端serving" style="shape=umlLifeline;perimeter=lifelinePerimeter;whiteSpace=wrap;html=1;container=1;collapsible=0;recursiveResize=0;outlineConnect=0;" parent="1" vertex="1">
          <mxGeometry x="530" y="70" width="100" height="410" as="geometry" />
        </mxCell>
        <mxCell id="-ciGOAF_GKhByW4b5rCs-12" value="" style="html=1;points=[];perimeter=orthogonalPerimeter;" parent="-ciGOAF_GKhByW4b5rCs-11" vertex="1">
          <mxGeometry x="45" y="50" width="10" height="80" as="geometry" />
        </mxCell>
        <mxCell id="-ciGOAF_GKhByW4b5rCs-13" value="" style="shape=umlLifeline;participant=umlEntity;perimeter=lifelinePerimeter;whiteSpace=wrap;html=1;container=1;collapsible=0;recursiveResize=0;verticalAlign=top;spacingTop=36;outlineConnect=0;" parent="1" vertex="1">
          <mxGeometry x="160" y="30" width="40" height="300" as="geometry" />
        </mxCell>
        <mxCell id="-ciGOAF_GKhByW4b5rCs-14" value="管理端" style="shape=umlLifeline;perimeter=lifelinePerimeter;whiteSpace=wrap;html=1;container=1;collapsible=0;recursiveResize=0;outlineConnect=0;" parent="1" vertex="1">
          <mxGeometry x="130" y="70" width="100" height="300" as="geometry" />
        </mxCell>
        <mxCell id="-ciGOAF_GKhByW4b5rCs-15" value="" style="html=1;points=[];perimeter=orthogonalPerimeter;" parent="-ciGOAF_GKhByW4b5rCs-14" vertex="1">
          <mxGeometry x="45" y="50" width="10" height="80" as="geometry" />
        </mxCell>
        <mxCell id="-ciGOAF_GKhByW4b5rCs-16" style="edgeStyle=orthogonalEdgeStyle;rounded=0;orthogonalLoop=1;jettySize=auto;html=1;entryX=0.1;entryY=0.05;entryDx=0;entryDy=0;entryPerimeter=0;" parent="1" source="-ciGOAF_GKhByW4b5rCs-15" target="-ciGOAF_GKhByW4b5rCs-12" edge="1">
          <mxGeometry relative="1" as="geometry">
            <Array as="points">
              <mxPoint x="290" y="124" />
              <mxPoint x="290" y="124" />
            </Array>
          </mxGeometry>
        </mxCell>
        <mxCell id="-ciGOAF_GKhByW4b5rCs-21" value="配置库存支持+预估周期" style="edgeLabel;html=1;align=center;verticalAlign=middle;resizable=0;points=[];" parent="-ciGOAF_GKhByW4b5rCs-16" vertex="1" connectable="0">
          <mxGeometry x="-0.422" y="-1" relative="1" as="geometry">
            <mxPoint x="-28" y="-5" as="offset" />
          </mxGeometry>
        </mxCell>
        <mxCell id="-ciGOAF_GKhByW4b5rCs-22" style="edgeStyle=orthogonalEdgeStyle;rounded=0;orthogonalLoop=1;jettySize=auto;html=1;entryX=1.3;entryY=0.5;entryDx=0;entryDy=0;entryPerimeter=0;dashed=1;" parent="1" source="-ciGOAF_GKhByW4b5rCs-12" target="-ciGOAF_GKhByW4b5rCs-15" edge="1">
          <mxGeometry relative="1" as="geometry" />
        </mxCell>
        <mxCell id="-ciGOAF_GKhByW4b5rCs-23" value="同步配置结果" style="edgeLabel;html=1;align=center;verticalAlign=middle;resizable=0;points=[];" parent="-ciGOAF_GKhByW4b5rCs-22" vertex="1" connectable="0">
          <mxGeometry x="-0.416" relative="1" as="geometry">
            <mxPoint as="offset" />
          </mxGeometry>
        </mxCell>
        <mxCell id="-ciGOAF_GKhByW4b5rCs-28" style="edgeStyle=orthogonalEdgeStyle;rounded=0;orthogonalLoop=1;jettySize=auto;html=1;dashed=1;" parent="1" source="-ciGOAF_GKhByW4b5rCs-25" target="-ciGOAF_GKhByW4b5rCs-24" edge="1">
          <mxGeometry relative="1" as="geometry" />
        </mxCell>
        <mxCell id="-ciGOAF_GKhByW4b5rCs-29" value="返回列表+库存支持与周期大小" style="edgeLabel;html=1;align=center;verticalAlign=middle;resizable=0;points=[];" parent="-ciGOAF_GKhByW4b5rCs-28" vertex="1" connectable="0">
          <mxGeometry x="-0.2316" y="2" relative="1" as="geometry">
            <mxPoint x="-22" y="-2" as="offset" />
          </mxGeometry>
        </mxCell>
        <mxCell id="-ciGOAF_GKhByW4b5rCs-25" value="" style="html=1;points=[];perimeter=orthogonalPerimeter;" parent="1" vertex="1">
          <mxGeometry x="575" y="220" width="10" height="80" as="geometry" />
        </mxCell>
        <mxCell id="-ciGOAF_GKhByW4b5rCs-26" style="edgeStyle=orthogonalEdgeStyle;rounded=0;orthogonalLoop=1;jettySize=auto;html=1;" parent="1" source="-ciGOAF_GKhByW4b5rCs-24" target="-ciGOAF_GKhByW4b5rCs-11" edge="1">
          <mxGeometry relative="1" as="geometry">
            <Array as="points">
              <mxPoint x="420" y="220" />
              <mxPoint x="420" y="220" />
            </Array>
          </mxGeometry>
        </mxCell>
        <mxCell id="-ciGOAF_GKhByW4b5rCs-27" value="查询广告位列表" style="edgeLabel;html=1;align=center;verticalAlign=middle;resizable=0;points=[];" parent="-ciGOAF_GKhByW4b5rCs-26" vertex="1" connectable="0">
          <mxGeometry x="-0.1877" y="-2" relative="1" as="geometry">
            <mxPoint as="offset" />
          </mxGeometry>
        </mxCell>
        <mxCell id="-ciGOAF_GKhByW4b5rCs-31" value="" style="shape=umlLifeline;participant=umlEntity;perimeter=lifelinePerimeter;whiteSpace=wrap;html=1;container=1;collapsible=0;recursiveResize=0;verticalAlign=top;spacingTop=36;outlineConnect=0;" parent="1" vertex="1">
          <mxGeometry x="760" y="30" width="40" height="300" as="geometry" />
        </mxCell>
        <mxCell id="-ciGOAF_GKhByW4b5rCs-32" value="算法库存预估" style="shape=umlLifeline;perimeter=lifelinePerimeter;whiteSpace=wrap;html=1;container=1;collapsible=0;recursiveResize=0;outlineConnect=0;" parent="1" vertex="1">
          <mxGeometry x="730" y="70" width="100" height="410" as="geometry" />
        </mxCell>
        <mxCell id="-ciGOAF_GKhByW4b5rCs-34" value="" style="html=1;points=[];perimeter=orthogonalPerimeter;" parent="-ciGOAF_GKhByW4b5rCs-32" vertex="1">
          <mxGeometry x="45" y="270" width="10" height="110" as="geometry" />
        </mxCell>
        <mxCell id="-ciGOAF_GKhByW4b5rCs-45" style="edgeStyle=orthogonalEdgeStyle;rounded=0;orthogonalLoop=1;jettySize=auto;html=1;" parent="1" source="-ciGOAF_GKhByW4b5rCs-42" target="-ciGOAF_GKhByW4b5rCs-11" edge="1">
          <mxGeometry relative="1" as="geometry">
            <mxPoint x="710" y="390" as="targetPoint" />
            <Array as="points">
              <mxPoint x="660" y="350" />
              <mxPoint x="660" y="387" />
            </Array>
          </mxGeometry>
        </mxCell>
        <mxCell id="-ciGOAF_GKhByW4b5rCs-46" value="判断支持+周期" style="edgeLabel;html=1;align=center;verticalAlign=middle;resizable=0;points=[];" parent="-ciGOAF_GKhByW4b5rCs-45" vertex="1" connectable="0">
          <mxGeometry x="-0.4754" y="-3" relative="1" as="geometry">
            <mxPoint as="offset" />
          </mxGeometry>
        </mxCell>
        <mxCell id="-ciGOAF_GKhByW4b5rCs-49" style="edgeStyle=orthogonalEdgeStyle;rounded=0;orthogonalLoop=1;jettySize=auto;html=1;entryX=0.5;entryY=0.458;entryDx=0;entryDy=0;entryPerimeter=0;" parent="1" source="-ciGOAF_GKhByW4b5rCs-42" target="-ciGOAF_GKhByW4b5rCs-34" edge="1">
          <mxGeometry relative="1" as="geometry" />
        </mxCell>
        <mxCell id="-ciGOAF_GKhByW4b5rCs-50" value="库存查询" style="edgeLabel;html=1;align=center;verticalAlign=middle;resizable=0;points=[];" parent="-ciGOAF_GKhByW4b5rCs-49" vertex="1" connectable="0">
          <mxGeometry x="0.2205" y="-1" relative="1" as="geometry">
            <mxPoint as="offset" />
          </mxGeometry>
        </mxCell>
        <mxCell id="-ciGOAF_GKhByW4b5rCs-56" style="edgeStyle=orthogonalEdgeStyle;rounded=0;orthogonalLoop=1;jettySize=auto;html=1;entryX=1.2;entryY=0.45;entryDx=0;entryDy=0;entryPerimeter=0;dashed=1;" parent="1" source="-ciGOAF_GKhByW4b5rCs-42" target="-ciGOAF_GKhByW4b5rCs-53" edge="1">
          <mxGeometry relative="1" as="geometry">
            <Array as="points">
              <mxPoint x="520" y="448" />
              <mxPoint x="520" y="448" />
            </Array>
          </mxGeometry>
        </mxCell>
        <mxCell id="-ciGOAF_GKhByW4b5rCs-57" value="反馈库存查询与锁定结果" style="edgeLabel;html=1;align=center;verticalAlign=middle;resizable=0;points=[];" parent="-ciGOAF_GKhByW4b5rCs-56" vertex="1" connectable="0">
          <mxGeometry x="-0.3191" y="-1" relative="1" as="geometry">
            <mxPoint x="-21" as="offset" />
          </mxGeometry>
        </mxCell>
        <mxCell id="-ciGOAF_GKhByW4b5rCs-42" value="" style="html=1;points=[];perimeter=orthogonalPerimeter;" parent="1" vertex="1">
          <mxGeometry x="575" y="340" width="10" height="110" as="geometry" />
        </mxCell>
        <mxCell id="-ciGOAF_GKhByW4b5rCs-43" style="edgeStyle=orthogonalEdgeStyle;rounded=0;orthogonalLoop=1;jettySize=auto;html=1;entryX=-0.4;entryY=0.027;entryDx=0;entryDy=0;entryPerimeter=0;" parent="1" source="-ciGOAF_GKhByW4b5rCs-30" target="-ciGOAF_GKhByW4b5rCs-42" edge="1">
          <mxGeometry relative="1" as="geometry">
            <mxPoint x="490" y="410" as="targetPoint" />
            <Array as="points">
              <mxPoint x="440" y="343" />
              <mxPoint x="440" y="343" />
            </Array>
          </mxGeometry>
        </mxCell>
        <mxCell id="-ciGOAF_GKhByW4b5rCs-44" value="库存预估与锁定" style="edgeLabel;html=1;align=center;verticalAlign=middle;resizable=0;points=[];" parent="-ciGOAF_GKhByW4b5rCs-43" vertex="1" connectable="0">
          <mxGeometry x="0.2316" y="-1" relative="1" as="geometry">
            <mxPoint x="-23" y="3" as="offset" />
          </mxGeometry>
        </mxCell>
        <mxCell id="-ciGOAF_GKhByW4b5rCs-51" style="edgeStyle=orthogonalEdgeStyle;rounded=0;orthogonalLoop=1;jettySize=auto;html=1;entryX=1.4;entryY=0.873;entryDx=0;entryDy=0;entryPerimeter=0;dashed=1;" parent="1" source="-ciGOAF_GKhByW4b5rCs-34" target="-ciGOAF_GKhByW4b5rCs-42" edge="1">
          <mxGeometry relative="1" as="geometry">
            <Array as="points">
              <mxPoint x="720" y="436" />
              <mxPoint x="720" y="436" />
            </Array>
          </mxGeometry>
        </mxCell>
        <mxCell id="-ciGOAF_GKhByW4b5rCs-52" value="反馈库存结果" style="edgeLabel;html=1;align=center;verticalAlign=middle;resizable=0;points=[];" parent="-ciGOAF_GKhByW4b5rCs-51" vertex="1" connectable="0">
          <mxGeometry x="-0.1935" y="4" relative="1" as="geometry">
            <mxPoint as="offset" />
          </mxGeometry>
        </mxCell>
        <mxCell id="-ciGOAF_GKhByW4b5rCs-53" value="" style="html=1;points=[];perimeter=orthogonalPerimeter;" parent="1" vertex="1">
          <mxGeometry x="375" y="430" width="10" height="40" as="geometry" />
        </mxCell>
      </root>
    </mxGraphModel>
  </diagram>
</mxfile>
